# xmcd
#
# Track frame offsets:
#	150
#	11675
#	24935
#	41887
#	57015
#	70722
#	86185
#	88910
#	101972
#	116400
#	127217
#	137245
#	153367
#
# Disc length: 2266 seconds
# Revision: 0
# Processed by: cddbd v1.5.2PL0 Copyright (c) Steve Scherf et al.
# Submitted via: dBpowerAMP V12.0
#
DISCID=b408d80d
DTITLE=Corb Lund Band - Five Dollar Bill
DYEAR=2002
DGENRE=Country
TTITLE0=Five Dollar Bill
TTITLE1=Expectation and the Blues
TTITLE2=Short Native Grasses (Prairies of Alberta)
TTITLE3=No Roads Here
TTITLE4=Apocalyptic Modified Blues
TTITLE5=Heavy and Leaving
TTITLE6=Intro/Jack of Diamonds
TTITLE7=Time to Switch to Whiskey
TTITLE8=Roughest Neck Around
TTITLE9=Daughter Don't You Marry No Guitar Picker
TTITLE10=(Gonna) Shine Up My Boots
TTITLE11=Buckin' Horse Rider
TTITLE12=She Won't Come to Me
EXTD=
EXTT0=
EXTT1=
EXTT2=
EXTT3=
EXTT4=
EXTT5=
EXTT6=
EXTT7=
EXTT8=
EXTT9=
EXTT10=
EXTT11=
EXTT12=
PLAYORDER=
